<svg width="32" height="32" viewBox="0 0 32 32" fill="none" xmlns="http://www.w3.org/2000/svg">
<path fill-rule="evenodd" clip-rule="evenodd" d="M16 0C24.8366 0 32 7.16344 32 16C32 24.8366 24.8366 32 16 32C7.16344 32 0 24.8366 0 16C0 7.16344 7.16344 0 16 0ZM13.2332 21.3527C12.8383 21.7388 12.8312 22.372 13.2173 22.7668C13.6034 23.1617 14.2366 23.1688 14.6314 22.7827L20.7674 16.7827C20.9598 16.5946 21.0683 16.3368 21.0683 16.0677C21.0683 15.7986 20.9598 15.5409 20.7674 15.3527L14.6314 9.35272C14.2366 8.9666 13.6034 8.97369 13.2173 9.36857C12.8312 9.76345 12.8383 10.3966 13.2332 10.7827L18.638 16.0677L13.2332 21.3527Z" fill="white"/>
</svg>
