<svg width="44" height="31" viewBox="0 0 44 31" fill="none" xmlns="http://www.w3.org/2000/svg">
<path d="M26 9.55C26 9.25 26.1087 8.94133 26.326 8.624C26.542 8.308 26.7833 8.1 27.05 8C28.0167 7.66667 28.9833 7.41667 29.95 7.25C30.9167 7.08333 31.9333 7 33 7C33.6667 7 34.3253 7.04133 34.976 7.124C35.6253 7.208 36.2667 7.31667 36.9 7.45C37.2 7.51667 37.458 7.68333 37.674 7.95C37.8913 8.21667 38 8.51667 38 8.85C38 9.41667 37.8167 9.83333 37.45 10.1C37.0833 10.3667 36.6167 10.4333 36.05 10.3C35.5833 10.2 35.092 10.1247 34.576 10.074C34.0587 10.0247 33.5333 10 33 10C32.1333 10 31.2833 10.0833 30.45 10.25C29.6167 10.4167 28.8167 10.6333 28.05 10.9C27.45 11.1333 26.9587 11.1167 26.576 10.85C26.192 10.5833 26 10.15 26 9.55ZM26 20.55C26 20.25 26.1087 19.9413 26.326 19.624C26.542 19.308 26.7833 19.1 27.05 19C28.0167 18.6667 28.9833 18.4167 29.95 18.25C30.9167 18.0833 31.9333 18 33 18C33.6667 18 34.3253 18.0413 34.976 18.124C35.6253 18.208 36.2667 18.3167 36.9 18.45C37.2 18.5167 37.458 18.6833 37.674 18.95C37.8913 19.2167 38 19.5167 38 19.85C38 20.4167 37.8167 20.8333 37.45 21.1C37.0833 21.3667 36.6167 21.4333 36.05 21.3C35.5833 21.2 35.092 21.1247 34.576 21.074C34.0587 21.0247 33.5333 21 33 21C32.1333 21 31.2833 21.0753 30.45 21.226C29.6167 21.3753 28.8167 21.5833 28.05 21.85C27.45 22.0833 26.9587 22.0747 26.576 21.824C26.192 21.5747 26 21.15 26 20.55ZM26 15.05C26 14.75 26.1087 14.4413 26.326 14.124C26.542 13.808 26.7833 13.6 27.05 13.5C28.0167 13.1667 28.9833 12.9167 29.95 12.75C30.9167 12.5833 31.9333 12.5 33 12.5C33.6667 12.5 34.3253 12.5413 34.976 12.624C35.6253 12.708 36.2667 12.8167 36.9 12.95C37.2 13.0167 37.458 13.1833 37.674 13.45C37.8913 13.7167 38 14.0167 38 14.35C38 14.9167 37.8167 15.3333 37.45 15.6C37.0833 15.8667 36.6167 15.9333 36.05 15.8C35.5833 15.7 35.092 15.6247 34.576 15.574C34.0587 15.5247 33.5333 15.5 33 15.5C32.1333 15.5 31.2833 15.5833 30.45 15.75C29.6167 15.9167 28.8167 16.1333 28.05 16.4C27.45 16.6333 26.9587 16.6167 26.576 16.35C26.192 16.0833 26 15.65 26 15.05ZM11 24C12.5667 24 14.092 24.1747 15.576 24.524C17.0587 24.8747 18.5333 25.4 20 26.1V6.4C18.6333 5.6 17.1833 5 15.65 4.6C14.1167 4.2 12.5667 4 11 4C9.8 4 8.60867 4.11667 7.426 4.35C6.242 4.58333 5.1 4.93333 4 5.4V25.2C5.16667 24.8 6.32533 24.5 7.476 24.3C8.62533 24.1 9.8 24 11 24ZM24 26.1C25.4667 25.4 26.942 24.8747 28.426 24.524C29.9087 24.1747 31.4333 24 33 24C34.2 24 35.3753 24.1 36.526 24.3C37.6753 24.5 38.8333 24.8 40 25.2V5.4C38.9 4.93333 37.7587 4.58333 36.576 4.35C35.392 4.11667 34.2 4 33 4C31.4333 4 29.8833 4.2 28.35 4.6C26.8167 5 25.3667 5.6 24 6.4V26.1ZM22 30.95C21.5333 30.95 21.092 30.892 20.676 30.776C20.2587 30.6587 19.8667 30.5 19.5 30.3C18.2 29.5333 16.8333 28.9587 15.4 28.576C13.9667 28.192 12.5 28 11 28C9.6 28 8.22533 28.1833 6.876 28.55C5.52533 28.9167 4.23333 29.4333 3 30.1C2.3 30.4667 1.62533 30.45 0.976 30.05C0.325333 29.65 0 29.0667 0 28.3V4.2C0 3.83333 0.092 3.48333 0.276 3.15C0.458667 2.81667 0.733333 2.56667 1.1 2.4C2.63333 1.6 4.23333 1 5.9 0.6C7.56667 0.2 9.26667 0 11 0C12.9333 0 14.8253 0.25 16.676 0.75C18.5253 1.25 20.3 2 22 3C23.7 2 25.4753 1.25 27.326 0.75C29.1753 0.25 31.0667 0 33 0C34.7333 0 36.4333 0.2 38.1 0.6C39.7667 1 41.3667 1.6 42.9 2.4C43.2667 2.56667 43.542 2.81667 43.726 3.15C43.9087 3.48333 44 3.83333 44 4.2V28.3C44 29.0667 43.6753 29.65 43.026 30.05C42.3753 30.45 41.7 30.4667 41 30.1C39.7667 29.4333 38.4747 28.9167 37.124 28.55C35.7747 28.1833 34.4 28 33 28C31.5 28 30.0333 28.192 28.6 28.576C27.1667 28.9587 25.8 29.5333 24.5 30.3C24.1333 30.5 23.742 30.6587 23.326 30.776C22.9087 30.892 22.4667 30.95 22 30.95Z" fill="#00A2FD"/>
</svg>
