<svg width="36" height="36" viewBox="0 0 36 36" fill="none" xmlns="http://www.w3.org/2000/svg">
<path d="M5.6501 30.25C4.08343 28.65 2.8501 26.8083 1.9501 24.725C1.0501 22.6416 0.600098 20.4 0.600098 18C0.600098 15.6 1.05843 13.3416 1.9751 11.225C2.89176 9.10831 4.13343 7.26664 5.7001 5.69998C7.26676 4.13331 9.10843 2.89164 11.2251 1.97498C13.3418 1.05831 15.6001 0.599976 18.0001 0.599976C20.4001 0.599976 22.6584 1.05831 24.7751 1.97498C26.8918 2.89164 28.7334 4.13331 30.3001 5.69998C31.8668 7.26664 33.1084 9.10831 34.0251 11.225C34.9418 13.3416 35.4001 15.6 35.4001 18C35.4001 20.4 34.9501 22.6416 34.0501 24.725C33.1501 26.8083 31.9168 28.65 30.3501 30.25C30.2501 30.35 30.1168 30.4 29.9501 30.4C29.7834 30.4 29.6501 30.35 29.5501 30.25C29.4501 30.15 29.4084 30.0166 29.4251 29.85C29.4418 29.6833 29.5001 29.55 29.6001 29.45C31.0668 27.9833 32.2168 26.275 33.0501 24.325C33.8834 22.375 34.3001 20.2666 34.3001 18C34.3001 13.4666 32.7168 9.61664 29.5501 6.44998C26.3834 3.28331 22.5334 1.69998 18.0001 1.69998C13.4668 1.69998 9.61676 3.28331 6.4501 6.44998C3.28343 9.61664 1.7001 13.4666 1.7001 18C1.7001 20.2666 2.1251 22.375 2.9751 24.325C3.8251 26.275 4.98343 27.9833 6.4501 29.45C6.51676 29.5833 6.56676 29.7166 6.6001 29.85C6.63343 29.9833 6.58343 30.1166 6.4501 30.25C6.3501 30.35 6.21676 30.4 6.0501 30.4C5.88343 30.4 5.7501 30.35 5.6501 30.25ZM11.3001 24.6C10.4668 23.7666 9.80843 22.7833 9.3251 21.65C8.84176 20.5166 8.6001 19.3 8.6001 18C8.6001 15.4 9.51676 13.1833 11.3501 11.35C13.1834 9.51664 15.4001 8.59998 18.0001 8.59998C20.6001 8.59998 22.8168 9.51664 24.6501 11.35C26.4834 13.1833 27.4001 15.4 27.4001 18C27.4001 19.3 27.1584 20.5083 26.6751 21.625C26.1918 22.7416 25.5334 23.7333 24.7001 24.6C24.6001 24.7 24.4668 24.75 24.3001 24.75C24.1334 24.75 24.0001 24.7 23.9001 24.6C23.8001 24.5 23.7501 24.375 23.7501 24.225C23.7501 24.075 23.8168 23.95 23.9501 23.85C24.6834 23.0833 25.2584 22.2 25.6751 21.2C26.0918 20.2 26.3001 19.1333 26.3001 18C26.3001 15.7 25.4918 13.7416 23.8751 12.125C22.2584 10.5083 20.3001 9.69998 18.0001 9.69998C15.7001 9.69998 13.7418 10.5083 12.1251 12.125C10.5084 13.7416 9.7001 15.7 9.7001 18C9.7001 19.1333 9.90843 20.2 10.3251 21.2C10.7418 22.2 11.3168 23.0833 12.0501 23.85C12.1834 23.95 12.2584 24.0666 12.2751 24.2C12.2918 24.3333 12.2334 24.4666 12.1001 24.6C11.9668 24.7333 11.8251 24.8 11.6751 24.8C11.5251 24.8 11.4001 24.7333 11.3001 24.6ZM18.0001 35.4C17.8334 35.4 17.7001 35.35 17.6001 35.25C17.5001 35.15 17.4501 35.0166 17.4501 34.85V19.25C17.1501 19.1166 16.9334 18.9333 16.8001 18.7C16.6668 18.4666 16.6001 18.2333 16.6001 18C16.6001 17.6333 16.7418 17.3083 17.0251 17.025C17.3084 16.7416 17.6334 16.6 18.0001 16.6C18.3668 16.6 18.6918 16.7416 18.9751 17.025C19.2584 17.3083 19.4001 17.6333 19.4001 18C19.4001 18.2333 19.3334 18.4583 19.2001 18.675C19.0668 18.8916 18.8501 19.0833 18.5501 19.25V34.85C18.5501 35.0166 18.5001 35.15 18.4001 35.25C18.3001 35.35 18.1668 35.4 18.0001 35.4Z" fill="url(#paint0_angular_284_18243)"/>
<defs>
<radialGradient id="paint0_angular_284_18243" cx="0" cy="0" r="1" gradientUnits="userSpaceOnUse" gradientTransform="translate(18.0001 18) rotate(90) scale(17.4)">
<stop stop-color="#056129"/>
<stop offset="0.0001" stop-color="#1F6B2E"/>
<stop offset="0.546875" stop-color="#FCBD5A"/>
</radialGradient>
</defs>
</svg>
