<svg width="48" height="36" viewBox="0 0 48 36" fill="none" xmlns="http://www.w3.org/2000/svg">
<path d="M40.6666 18.7333C40.4444 18.7333 40.2666 18.6667 40.1333 18.5333C39.9999 18.4 39.9333 18.2222 39.9333 18C39.9333 17.7778 39.9999 17.6 40.1333 17.4667C40.2666 17.3333 40.4444 17.2667 40.6666 17.2667H46.9999C47.2222 17.2667 47.3999 17.3333 47.5333 17.4667C47.6666 17.6 47.7333 17.7778 47.7333 18C47.7333 18.2222 47.6666 18.4 47.5333 18.5333C47.3999 18.6667 47.2222 18.7333 46.9999 18.7333H40.6666ZM42.1999 35.3333L37.1333 31.5333C36.9999 31.4 36.911 31.2333 36.8666 31.0333C36.8222 30.8333 36.8666 30.6444 36.9999 30.4667C37.1333 30.3333 37.2999 30.2444 37.4999 30.2C37.6999 30.1556 37.8888 30.2 38.0666 30.3333L43.0666 34.1333C43.2444 34.2667 43.3555 34.4333 43.3999 34.6333C43.4444 34.8333 43.3999 35 43.2666 35.1333C43.1333 35.3111 42.9555 35.4222 42.7333 35.4667C42.511 35.5111 42.3333 35.4667 42.1999 35.3333ZM37.8666 5.4C37.6888 5.53333 37.4999 5.57778 37.2999 5.53333C37.0999 5.48889 36.9333 5.37778 36.7999 5.2C36.6666 5.06667 36.6222 4.9 36.6666 4.7C36.711 4.5 36.7999 4.33333 36.9333 4.2L41.9333 0.4C42.0666 0.266667 42.2444 0.222222 42.4666 0.266667C42.6888 0.311111 42.8666 0.422222 42.9999 0.6C43.1333 0.733333 43.1777 0.9 43.1333 1.1C43.0888 1.3 42.9777 1.46667 42.7999 1.6L37.8666 5.4ZM7.2666 33.0667V23.0667H3.8666C2.88882 23.0667 2.04438 22.7111 1.33327 22C0.622157 21.2889 0.266602 20.4444 0.266602 19.4667V16.5333C0.266602 15.5556 0.622157 14.7111 1.33327 14C2.04438 13.2889 2.88882 12.9333 3.8666 12.9333H13.9999L21.0666 8.8C21.6444 8.44445 22.2333 8.43333 22.8333 8.76667C23.4333 9.1 23.7333 9.62222 23.7333 10.3333V25.6667C23.7333 26.3778 23.4333 26.9 22.8333 27.2333C22.2333 27.5667 21.6444 27.5556 21.0666 27.2L13.9999 23.0667H8.73327V33.0667H7.2666ZM29.0666 25.3333V10.6667C29.8666 11.4222 30.511 12.4444 30.9999 13.7333C31.4888 15.0222 31.7333 16.4444 31.7333 18C31.7333 19.5556 31.4888 20.9778 30.9999 22.2667C30.511 23.5556 29.8666 24.5778 29.0666 25.3333ZM22.2666 26.2V9.8L14.3999 14.4H3.8666C3.33327 14.4 2.84438 14.6222 2.39994 15.0667C1.95549 15.5111 1.73327 16 1.73327 16.5333V19.4667C1.73327 20 1.95549 20.4889 2.39994 20.9333C2.84438 21.3778 3.33327 21.6 3.8666 21.6H14.3999L22.2666 26.2Z" fill="url(#paint0_angular_284_18257)"/>
<defs>
<radialGradient id="paint0_angular_284_18257" cx="0" cy="0" r="1" gradientUnits="userSpaceOnUse" gradientTransform="translate(23.9999 17.8667) rotate(90) scale(17.6167 23.7333)">
<stop stop-color="#056129"/>
<stop offset="0.0001" stop-color="#1F6B2E"/>
<stop offset="0.546875" stop-color="#FCBD5A"/>
</radialGradient>
</defs>
</svg>
