<svg width="48" height="48" viewBox="0 0 48 48" fill="none" xmlns="http://www.w3.org/2000/svg">
<g clip-path="url(#clip0_602_5208)">
<path fill-rule="evenodd" clip-rule="evenodd" d="M8 14C8 11.3478 9.05357 8.8043 10.9289 6.92893C12.8043 5.05357 15.3478 4 18 4H30C32.6522 4 35.1957 5.05357 37.0711 6.92893C38.9464 8.8043 40 11.3478 40 14V26C40 28.6522 38.9464 31.1957 37.0711 33.0711C35.1957 34.9464 32.6522 36 30 36H26V40H30C30.5304 40 31.0391 40.2107 31.4142 40.5858C31.7893 40.9609 32 41.4696 32 42C32 42.5304 31.7893 43.0391 31.4142 43.4142C31.0391 43.7893 30.5304 44 30 44H18C17.4696 44 16.9609 43.7893 16.5858 43.4142C16.2107 43.0391 16 42.5304 16 42C16 41.4696 16.2107 40.9609 16.5858 40.5858C16.9609 40.2107 17.4696 40 18 40H22V36H18C15.3478 36 12.8043 34.9464 10.9289 33.0711C9.05357 31.1957 8 28.6522 8 26V14ZM24 32H30C31.5913 32 33.1174 31.3679 34.2426 30.2426C35.3679 29.1174 36 27.5913 36 26H30C29.4696 26 28.9609 25.7893 28.5858 25.4142C28.2107 25.0391 28 24.5304 28 24C28 23.4696 28.2107 22.9609 28.5858 22.5858C28.9609 22.2107 29.4696 22 30 22H36V18H30C29.4696 18 28.9609 17.7893 28.5858 17.4142C28.2107 17.0391 28 16.5304 28 16C28 15.4696 28.2107 14.9609 28.5858 14.5858C28.9609 14.2107 29.4696 14 30 14H36C36 12.4087 35.3679 10.8826 34.2426 9.75736C33.1174 8.63214 31.5913 8 30 8H18C16.4087 8 14.8826 8.63214 13.7574 9.75736C12.6321 10.8826 12 12.4087 12 14H18C18.5304 14 19.0391 14.2107 19.4142 14.5858C19.7893 14.9609 20 15.4696 20 16C20 16.5304 19.7893 17.0391 19.4142 17.4142C19.0391 17.7893 18.5304 18 18 18H12V22H18C18.5304 22 19.0391 22.2107 19.4142 22.5858C19.7893 22.9609 20 23.4696 20 24C20 24.5304 19.7893 25.0391 19.4142 25.4142C19.0391 25.7893 18.5304 26 18 26H12C12 27.5913 12.6321 29.1174 13.7574 30.2426C14.8826 31.3679 16.4087 32 18 32H24Z" fill="#FF4D00"/>
</g>
<defs>
<clipPath id="clip0_602_5208">
<rect width="48" height="48" fill="white"/>
</clipPath>
</defs>
</svg>
