<svg width="32" height="38" viewBox="0 0 32 38" fill="none" xmlns="http://www.w3.org/2000/svg">
<path d="M17.85 31.55H7.39997C7.26664 32.3833 6.88331 33.0667 6.24998 33.6C5.61664 34.1333 4.86664 34.4 3.99998 34.4C3.06664 34.4 2.26664 34.0667 1.59998 33.4C0.933309 32.7333 0.599976 31.9333 0.599976 31C0.599976 30.1333 0.866641 29.3833 1.39997 28.75C1.93331 28.1167 2.61664 27.7333 3.44998 27.6V10.4C2.61664 10.2667 1.93331 9.88333 1.39997 9.25C0.866641 8.61667 0.599976 7.86667 0.599976 7C0.599976 6.06667 0.933309 5.26667 1.59998 4.6C2.26664 3.93333 3.06664 3.6 3.99998 3.6C4.86664 3.6 5.61664 3.86667 6.24998 4.4C6.88331 4.93333 7.26664 5.61667 7.39997 6.45H17.85L13.1 1.75C12.9666 1.65 12.9 1.525 12.9 1.375C12.9 1.225 12.95 1.08333 13.05 0.95C13.2166 0.816666 13.3666 0.75 13.5 0.75C13.6333 0.75 13.7666 0.816666 13.9 0.95L19 6.05C19.2666 6.31667 19.4 6.63333 19.4 7C19.4 7.36667 19.2666 7.68333 19 7.95L13.9 13.05C13.8333 13.0833 13.775 13.1167 13.725 13.15C13.675 13.1833 13.6083 13.2 13.525 13.2C13.4416 13.2 13.3666 13.1917 13.3 13.175C13.2333 13.1583 13.1666 13.1167 13.1 13.05C12.9666 12.9167 12.9 12.7833 12.9 12.65C12.9 12.5167 12.9666 12.3833 13.1 12.25L17.85 7.55H7.39997C7.26664 8.25 6.93331 8.86667 6.39997 9.4C5.86664 9.93333 5.24998 10.2667 4.54998 10.4V27.6C5.24998 27.7333 5.86664 28.0667 6.39997 28.6C6.93331 29.1333 7.26664 29.75 7.39997 30.45H17.8L13.1 25.7C13 25.6 12.95 25.475 12.95 25.325C12.95 25.175 13 25.05 13.1 24.95C13.2 24.8167 13.3333 24.7583 13.5 24.775C13.6666 24.7917 13.8 24.85 13.9 24.95L19 30.05C19.2666 30.3167 19.4 30.6333 19.4 31C19.4 31.3667 19.2666 31.6833 19 31.95L13.9 37.05L13.7 37.15C13.6333 37.1833 13.5666 37.2 13.5 37.2C13.4333 37.2 13.3666 37.1917 13.3 37.175C13.2333 37.1583 13.1666 37.1167 13.1 37.05C13 36.95 12.9583 36.8167 12.975 36.65C12.9916 36.4833 13.05 36.35 13.15 36.25L17.85 31.55ZM28 34.4C27.0666 34.4 26.2666 34.0667 25.6 33.4C24.9333 32.7333 24.6 31.9333 24.6 31C24.6 30.1333 24.8666 29.3833 25.4 28.75C25.9333 28.1167 26.6166 27.7333 27.45 27.6V10.4C26.6166 10.2667 25.9333 9.875 25.4 9.225C24.8666 8.575 24.6 7.83333 24.6 7C24.6 6.06667 24.9333 5.26667 25.6 4.6C26.2666 3.93333 27.0666 3.6 28 3.6C28.9333 3.6 29.7333 3.93333 30.4 4.6C31.0666 5.26667 31.4 6.06667 31.4 7C31.4 7.86667 31.1333 8.61667 30.6 9.25C30.0666 9.88333 29.3833 10.2667 28.55 10.4V27.6C29.3833 27.7333 30.0666 28.1167 30.6 28.75C31.1333 29.3833 31.4 30.1333 31.4 31C31.4 31.9333 31.0666 32.7333 30.4 33.4C29.7333 34.0667 28.9333 34.4 28 34.4ZM3.99998 33.3C4.66664 33.3 5.21664 33.0833 5.64997 32.65C6.08331 32.2167 6.29998 31.6667 6.29998 31C6.29998 30.3333 6.08331 29.7833 5.64997 29.35C5.21664 28.9167 4.66664 28.7 3.99998 28.7C3.36664 28.7 2.82498 28.9167 2.37498 29.35C1.92498 29.7833 1.69998 30.3333 1.69998 31C1.69998 31.6333 1.91664 32.175 2.34998 32.625C2.78331 33.075 3.33331 33.3 3.99998 33.3ZM28 33.3C28.6666 33.3 29.2166 33.0833 29.65 32.65C30.0833 32.2167 30.3 31.6667 30.3 31C30.3 30.3333 30.0833 29.7833 29.65 29.35C29.2166 28.9167 28.6666 28.7 28 28.7C27.3666 28.7 26.825 28.9167 26.375 29.35C25.925 29.7833 25.7 30.3333 25.7 31C25.7 31.6333 25.9166 32.175 26.35 32.625C26.7833 33.075 27.3333 33.3 28 33.3ZM3.99998 9.3C4.66664 9.3 5.21664 9.08333 5.64997 8.65C6.08331 8.21667 6.29998 7.66667 6.29998 7C6.29998 6.33333 6.08331 5.78333 5.64997 5.35C5.21664 4.91667 4.66664 4.7 3.99998 4.7C3.36664 4.7 2.82498 4.91667 2.37498 5.35C1.92498 5.78333 1.69998 6.33333 1.69998 7C1.69998 7.63333 1.91664 8.175 2.34998 8.625C2.78331 9.075 3.33331 9.3 3.99998 9.3ZM28 9.3C28.6666 9.3 29.2166 9.08333 29.65 8.65C30.0833 8.21667 30.3 7.66667 30.3 7C30.3 6.33333 30.0833 5.78333 29.65 5.35C29.2166 4.91667 28.6666 4.7 28 4.7C27.3666 4.7 26.825 4.91667 26.375 5.35C25.925 5.78333 25.7 6.33333 25.7 7C25.7 7.63333 25.9166 8.175 26.35 8.625C26.7833 9.075 27.3333 9.3 28 9.3Z" fill="url(#paint0_angular_284_18268)"/>
<defs>
<radialGradient id="paint0_angular_284_18268" cx="0" cy="0" r="1" gradientUnits="userSpaceOnUse" gradientTransform="translate(16 18.975) rotate(90) scale(18.225 15.4)">
<stop stop-color="#056129"/>
<stop offset="0.0001" stop-color="#1F6B2E"/>
<stop offset="0.546875" stop-color="#FCBD5A"/>
</radialGradient>
</defs>
</svg>
